<svg width="836" height="222" viewBox="0 0 836 222" fill="none" xmlns="http://www.w3.org/2000/svg">
<g filter="url(#filter0_d_4_2)">
<path d="M11 170.845C11 170.845 72.6274 128.206 108.513 127.096C144.399 125.987 171.884 164.994 200.161 164.994C228.438 164.994 258.383 99 298 99C337.617 99 353.866 115.22 379.386 115.22C404.905 115.22 427.349 81.6779 470.245 81.6779C513.14 81.6779 543.59 127.096 567.681 127.096C591.771 127.096 597.158 86.0453 657.58 86.0453C718.002 86.0453 703.714 50 745.21 50C786.707 50 745.21 101.1 838 113.977" stroke="#2F74FE" stroke-width="2" stroke-linecap="round" stroke-linejoin="round"/>
</g>
<path d="M14.2841 112.159C13.4091 112.159 12.6307 112.017 11.9489 111.733C11.2708 111.445 10.7386 111.053 10.3523 110.557C9.96591 110.061 9.77273 109.498 9.77273 108.869C9.77273 108.384 9.88258 107.939 10.1023 107.534C10.3258 107.125 10.6288 106.786 11.0114 106.517C11.3939 106.244 11.822 106.07 12.2955 105.994V105.915C11.6742 105.79 11.1705 105.489 10.7841 105.011C10.3977 104.53 10.2045 103.972 10.2045 103.335C10.2045 102.733 10.3807 102.197 10.733 101.727C11.0852 101.254 11.5682 100.883 12.1818 100.614C12.7992 100.341 13.5 100.205 14.2841 100.205C15.0682 100.205 15.767 100.341 16.3807 100.614C16.9981 100.886 17.483 101.259 17.8352 101.733C18.1875 102.203 18.3655 102.737 18.3693 103.335C18.3655 103.975 18.1686 104.534 17.7784 105.011C17.3883 105.489 16.8883 105.79 16.2784 105.915V105.994C16.7443 106.07 17.1667 106.244 17.5455 106.517C17.928 106.786 18.2311 107.125 18.4545 107.534C18.6818 107.939 18.7973 108.384 18.8011 108.869C18.7973 109.498 18.6023 110.061 18.2159 110.557C17.8295 111.053 17.2955 111.445 16.6136 111.733C15.9356 112.017 15.1591 112.159 14.2841 112.159ZM14.2841 110.352C14.6742 110.352 15.0152 110.282 15.3068 110.142C15.5985 109.998 15.8258 109.801 15.9886 109.551C16.1553 109.297 16.2386 109.006 16.2386 108.676C16.2386 108.339 16.1534 108.042 15.983 107.784C15.8125 107.523 15.5814 107.318 15.2898 107.17C14.9981 107.019 14.6629 106.943 14.2841 106.943C13.9091 106.943 13.5739 107.019 13.2784 107.17C12.983 107.318 12.75 107.523 12.5795 107.784C12.4129 108.042 12.3295 108.339 12.3295 108.676C12.3295 109.006 12.411 109.297 12.5739 109.551C12.7367 109.801 12.9659 109.998 13.2614 110.142C13.5568 110.282 13.8977 110.352 14.2841 110.352ZM14.2841 105.153C14.6098 105.153 14.8996 105.087 15.1534 104.955C15.4072 104.822 15.6061 104.638 15.75 104.403C15.8939 104.169 15.9659 103.898 15.9659 103.591C15.9659 103.288 15.8939 103.023 15.75 102.795C15.6061 102.564 15.4091 102.384 15.1591 102.256C14.9091 102.123 14.6174 102.057 14.2841 102.057C13.9545 102.057 13.6629 102.123 13.4091 102.256C13.1553 102.384 12.9564 102.564 12.8125 102.795C12.6723 103.023 12.6023 103.288 12.6023 103.591C12.6023 103.898 12.6742 104.169 12.8182 104.403C12.9621 104.638 13.161 104.822 13.4148 104.955C13.6686 105.087 13.9583 105.153 14.2841 105.153ZM23.2543 105.869C22.7391 105.869 22.2694 105.744 21.8452 105.494C21.4247 105.241 21.0895 104.903 20.8395 104.483C20.5895 104.059 20.4645 103.589 20.4645 103.074C20.4645 102.562 20.5895 102.097 20.8395 101.676C21.0895 101.252 21.4247 100.915 21.8452 100.665C22.2694 100.411 22.7391 100.284 23.2543 100.284C23.7694 100.284 24.2372 100.411 24.6577 100.665C25.0819 100.915 25.419 101.252 25.669 101.676C25.919 102.097 26.044 102.562 26.044 103.074C26.044 103.589 25.919 104.059 25.669 104.483C25.419 104.903 25.0819 105.241 24.6577 105.494C24.2372 105.744 23.7694 105.869 23.2543 105.869ZM23.2543 104.256C23.474 104.256 23.6728 104.203 23.8509 104.097C24.0289 103.991 24.169 103.848 24.2713 103.67C24.3774 103.492 24.4304 103.294 24.4304 103.074C24.4304 102.858 24.3774 102.661 24.2713 102.483C24.169 102.305 24.0289 102.163 23.8509 102.057C23.6728 101.951 23.474 101.898 23.2543 101.898C23.0384 101.898 22.8414 101.951 22.6634 102.057C22.4853 102.163 22.3433 102.305 22.2372 102.483C22.1312 102.661 22.0781 102.858 22.0781 103.074C22.0781 103.294 22.1312 103.492 22.2372 103.67C22.3433 103.848 22.4853 103.991 22.6634 104.097C22.8414 104.203 23.0384 104.256 23.2543 104.256ZM37.919 104.438H35.4304C35.3849 104.116 35.2921 103.83 35.152 103.58C35.0118 103.326 34.8319 103.11 34.6122 102.932C34.3925 102.754 34.1387 102.617 33.8509 102.523C33.5668 102.428 33.258 102.381 32.9247 102.381C32.3224 102.381 31.7978 102.53 31.3509 102.83C30.9039 103.125 30.5573 103.557 30.3111 104.125C30.0649 104.689 29.9418 105.375 29.9418 106.182C29.9418 107.011 30.0649 107.708 30.3111 108.273C30.5611 108.837 30.9096 109.263 31.3565 109.551C31.8035 109.839 32.3205 109.983 32.9077 109.983C33.2372 109.983 33.5421 109.939 33.8224 109.852C34.1065 109.765 34.3584 109.638 34.5781 109.472C34.7978 109.301 34.9796 109.095 35.1236 108.852C35.2713 108.61 35.3736 108.333 35.4304 108.023L37.919 108.034C37.8546 108.568 37.6937 109.083 37.4361 109.58C37.1823 110.072 36.8395 110.513 36.4077 110.903C35.9796 111.29 35.4683 111.597 34.8736 111.824C34.2827 112.047 33.6141 112.159 32.8679 112.159C31.83 112.159 30.902 111.924 30.0838 111.455C29.2694 110.985 28.6255 110.305 28.152 109.415C27.6823 108.525 27.4474 107.447 27.4474 106.182C27.4474 104.913 27.6861 103.833 28.1634 102.943C28.6406 102.053 29.2884 101.375 30.1065 100.909C30.9247 100.439 31.8452 100.205 32.8679 100.205C33.5421 100.205 34.1671 100.299 34.7429 100.489C35.3224 100.678 35.8357 100.955 36.2827 101.318C36.7296 101.678 37.0933 102.119 37.3736 102.642C37.6577 103.165 37.8395 103.763 37.919 104.438Z" fill="#2C2C2C"/>
<path d="M13.8223 219L17.3379 211.324H12.668V210.434H18.3809V211.184L14.8887 219H13.8223ZM19.8691 218.391C19.8691 218.117 19.9355 217.924 20.0684 217.811C20.2012 217.693 20.3633 217.635 20.5547 217.635C20.7539 217.635 20.9219 217.693 21.0586 217.811C21.1953 217.924 21.2637 218.117 21.2637 218.391C21.2637 218.66 21.1953 218.857 21.0586 218.982C20.9219 219.104 20.7539 219.164 20.5547 219.164C20.3633 219.164 20.2012 219.104 20.0684 218.982C19.9355 218.857 19.8691 218.66 19.8691 218.391ZM19.8691 213.193C19.8691 212.912 19.9355 212.715 20.0684 212.602C20.2012 212.484 20.3633 212.426 20.5547 212.426C20.7539 212.426 20.9219 212.484 21.0586 212.602C21.1953 212.715 21.2637 212.912 21.2637 213.193C21.2637 213.459 21.1953 213.652 21.0586 213.773C20.9219 213.895 20.7539 213.955 20.5547 213.955C20.3633 213.955 20.2012 213.895 20.0684 213.773C19.9355 213.652 19.8691 213.459 19.8691 213.193ZM28.3945 214.705C28.3945 215.4 28.3418 216.021 28.2363 216.568C28.1309 217.115 27.9648 217.578 27.7383 217.957C27.5117 218.336 27.2188 218.625 26.8594 218.824C26.5 219.02 26.0684 219.117 25.5645 219.117C24.9277 219.117 24.4004 218.943 23.9824 218.596C23.5684 218.248 23.2578 217.746 23.0508 217.09C22.8477 216.43 22.7461 215.635 22.7461 214.705C22.7461 213.791 22.8379 213.006 23.0215 212.35C23.209 211.689 23.5098 211.184 23.9238 210.832C24.3379 210.477 24.8848 210.299 25.5645 210.299C26.209 210.299 26.7402 210.475 27.1582 210.826C27.5762 211.174 27.8867 211.678 28.0898 212.338C28.293 212.994 28.3945 213.783 28.3945 214.705ZM23.7246 214.705C23.7246 215.502 23.7852 216.166 23.9062 216.697C24.0273 217.229 24.2227 217.627 24.4922 217.893C24.7656 218.154 25.123 218.285 25.5645 218.285C26.0059 218.285 26.3613 218.154 26.6309 217.893C26.9043 217.631 27.1016 217.234 27.2227 216.703C27.3477 216.172 27.4102 215.506 27.4102 214.705C27.4102 213.92 27.3496 213.264 27.2285 212.736C27.1074 212.205 26.9121 211.807 26.6426 211.541C26.373 211.271 26.0137 211.137 25.5645 211.137C25.1152 211.137 24.7559 211.271 24.4863 211.541C24.2168 211.807 24.0215 212.205 23.9004 212.736C23.7832 213.264 23.7246 213.92 23.7246 214.705ZM35.2617 214.705C35.2617 215.4 35.209 216.021 35.1035 216.568C34.998 217.115 34.832 217.578 34.6055 217.957C34.3789 218.336 34.0859 218.625 33.7266 218.824C33.3672 219.02 32.9355 219.117 32.4316 219.117C31.7949 219.117 31.2676 218.943 30.8496 218.596C30.4355 218.248 30.125 217.746 29.918 217.09C29.7148 216.43 29.6133 215.635 29.6133 214.705C29.6133 213.791 29.7051 213.006 29.8887 212.35C30.0762 211.689 30.377 211.184 30.791 210.832C31.2051 210.477 31.752 210.299 32.4316 210.299C33.0762 210.299 33.6074 210.475 34.0254 210.826C34.4434 211.174 34.7539 211.678 34.957 212.338C35.1602 212.994 35.2617 213.783 35.2617 214.705ZM30.5918 214.705C30.5918 215.502 30.6523 216.166 30.7734 216.697C30.8945 217.229 31.0898 217.627 31.3594 217.893C31.6328 218.154 31.9902 218.285 32.4316 218.285C32.873 218.285 33.2285 218.154 33.498 217.893C33.7715 217.631 33.9688 217.234 34.0898 216.703C34.2148 216.172 34.2773 215.506 34.2773 214.705C34.2773 213.92 34.2168 213.264 34.0957 212.736C33.9746 212.205 33.7793 211.807 33.5098 211.541C33.2402 211.271 32.8809 211.137 32.4316 211.137C31.9824 211.137 31.623 211.271 31.3535 211.541C31.084 211.807 30.8887 212.205 30.7676 212.736C30.6504 213.264 30.5918 213.92 30.5918 214.705Z" fill="#7D7D7D"/>
<path d="M119.006 84.3636V96H116.545V86.6989H116.477L113.812 88.3693V86.1875L116.693 84.3636H119.006ZM126.334 96.2557C125.357 96.2519 124.516 96.0114 123.811 95.5341C123.11 95.0568 122.571 94.3655 122.192 93.4602C121.817 92.5549 121.631 91.4659 121.635 90.1932C121.635 88.9242 121.822 87.8428 122.197 86.9489C122.576 86.0549 123.116 85.375 123.817 84.9091C124.521 84.4394 125.36 84.2045 126.334 84.2045C127.307 84.2045 128.144 84.4394 128.845 84.9091C129.55 85.3788 130.091 86.0606 130.47 86.9545C130.849 87.8447 131.036 88.9242 131.033 90.1932C131.033 91.4697 130.843 92.5606 130.464 93.4659C130.089 94.3712 129.552 95.0625 128.851 95.5398C128.15 96.017 127.311 96.2557 126.334 96.2557ZM126.334 94.2159C127 94.2159 127.533 93.8807 127.93 93.2102C128.328 92.5398 128.525 91.5341 128.521 90.1932C128.521 89.3106 128.43 88.5758 128.249 87.9886C128.071 87.4015 127.817 86.9602 127.487 86.6648C127.161 86.3693 126.777 86.2216 126.334 86.2216C125.671 86.2216 125.141 86.553 124.743 87.2159C124.345 87.8788 124.144 88.8712 124.141 90.1932C124.141 91.0871 124.23 91.8333 124.408 92.4318C124.589 93.0265 124.845 93.4735 125.175 93.7727C125.504 94.0682 125.891 94.2159 126.334 94.2159ZM135.52 89.8693C135.005 89.8693 134.535 89.7443 134.111 89.4943C133.69 89.2405 133.355 88.9034 133.105 88.483C132.855 88.0587 132.73 87.589 132.73 87.0739C132.73 86.5625 132.855 86.0966 133.105 85.6761C133.355 85.2519 133.69 84.9148 134.111 84.6648C134.535 84.411 135.005 84.2841 135.52 84.2841C136.035 84.2841 136.503 84.411 136.923 84.6648C137.348 84.9148 137.685 85.2519 137.935 85.6761C138.185 86.0966 138.31 86.5625 138.31 87.0739C138.31 87.589 138.185 88.0587 137.935 88.483C137.685 88.9034 137.348 89.2405 136.923 89.4943C136.503 89.7443 136.035 89.8693 135.52 89.8693ZM135.52 88.2557C135.74 88.2557 135.938 88.2027 136.116 88.0966C136.295 87.9905 136.435 87.8485 136.537 87.6705C136.643 87.4924 136.696 87.2936 136.696 87.0739C136.696 86.858 136.643 86.661 136.537 86.483C136.435 86.3049 136.295 86.1629 136.116 86.0568C135.938 85.9508 135.74 85.8977 135.52 85.8977C135.304 85.8977 135.107 85.9508 134.929 86.0568C134.751 86.1629 134.609 86.3049 134.503 86.483C134.397 86.661 134.344 86.858 134.344 87.0739C134.344 87.2936 134.397 87.4924 134.503 87.6705C134.609 87.8485 134.751 87.9905 134.929 88.0966C135.107 88.2027 135.304 88.2557 135.52 88.2557ZM150.185 88.4375H147.696C147.651 88.1155 147.558 87.8295 147.418 87.5795C147.277 87.3258 147.098 87.1098 146.878 86.9318C146.658 86.7538 146.404 86.6174 146.116 86.5227C145.832 86.428 145.524 86.3807 145.19 86.3807C144.588 86.3807 144.063 86.5303 143.616 86.8295C143.17 87.125 142.823 87.5568 142.577 88.125C142.33 88.6894 142.207 89.375 142.207 90.1818C142.207 91.0114 142.33 91.7083 142.577 92.2727C142.827 92.8371 143.175 93.2633 143.622 93.5511C144.069 93.839 144.586 93.983 145.173 93.983C145.503 93.983 145.808 93.9394 146.088 93.8523C146.372 93.7652 146.624 93.6383 146.844 93.4716C147.063 93.3011 147.245 93.0947 147.389 92.8523C147.537 92.6098 147.639 92.3333 147.696 92.0227L150.185 92.0341C150.12 92.5682 149.959 93.0833 149.702 93.5795C149.448 94.072 149.105 94.5133 148.673 94.9034C148.245 95.2898 147.734 95.5966 147.139 95.8239C146.548 96.0473 145.88 96.1591 145.134 96.1591C144.096 96.1591 143.168 95.9242 142.349 95.4545C141.535 94.9848 140.891 94.3049 140.418 93.4148C139.948 92.5246 139.713 91.447 139.713 90.1818C139.713 88.9129 139.952 87.8333 140.429 86.9432C140.906 86.053 141.554 85.375 142.372 84.9091C143.19 84.4394 144.111 84.2045 145.134 84.2045C145.808 84.2045 146.433 84.2992 147.009 84.4886C147.588 84.678 148.101 84.9545 148.548 85.3182C148.995 85.678 149.359 86.1193 149.639 86.642C149.923 87.1648 150.105 87.7633 150.185 88.4375Z" fill="#2C2C2C"/>
<path d="M123.545 210.311C124.041 210.311 124.48 210.389 124.863 210.545C125.246 210.701 125.545 210.932 125.76 211.236C125.979 211.537 126.088 211.908 126.088 212.35C126.088 212.697 126.012 213.002 125.859 213.264C125.711 213.521 125.51 213.748 125.256 213.943C125.002 214.135 124.721 214.307 124.412 214.459C124.779 214.627 125.109 214.816 125.402 215.027C125.699 215.238 125.934 215.486 126.105 215.771C126.277 216.057 126.363 216.395 126.363 216.785C126.363 217.266 126.246 217.682 126.012 218.033C125.781 218.381 125.457 218.648 125.039 218.836C124.621 219.023 124.131 219.117 123.568 219.117C122.963 219.117 122.447 219.027 122.021 218.848C121.6 218.664 121.277 218.402 121.055 218.062C120.836 217.719 120.727 217.307 120.727 216.826C120.727 216.432 120.811 216.09 120.979 215.801C121.146 215.508 121.369 215.256 121.646 215.045C121.924 214.834 122.227 214.656 122.555 214.512C122.27 214.355 122.008 214.178 121.77 213.979C121.535 213.779 121.348 213.547 121.207 213.281C121.07 213.012 121.002 212.699 121.002 212.344C121.002 211.91 121.111 211.543 121.33 211.242C121.553 210.938 121.855 210.707 122.238 210.551C122.625 210.391 123.061 210.311 123.545 210.311ZM121.682 216.832C121.682 217.27 121.836 217.631 122.145 217.916C122.453 218.197 122.92 218.338 123.545 218.338C124.139 218.338 124.598 218.197 124.922 217.916C125.246 217.631 125.408 217.258 125.408 216.797C125.408 216.512 125.334 216.262 125.186 216.047C125.037 215.828 124.826 215.633 124.553 215.461C124.279 215.289 123.957 215.133 123.586 214.992L123.375 214.916C123.016 215.064 122.709 215.23 122.455 215.414C122.205 215.594 122.014 215.799 121.881 216.029C121.748 216.26 121.682 216.527 121.682 216.832ZM123.533 211.107C123.072 211.107 122.695 211.219 122.402 211.441C122.109 211.66 121.963 211.977 121.963 212.391C121.963 212.688 122.033 212.939 122.174 213.146C122.318 213.35 122.514 213.525 122.76 213.674C123.006 213.818 123.281 213.953 123.586 214.078C123.883 213.953 124.146 213.816 124.377 213.668C124.607 213.516 124.789 213.336 124.922 213.129C125.055 212.922 125.121 212.674 125.121 212.385C125.121 211.971 124.975 211.654 124.682 211.436C124.393 211.217 124.01 211.107 123.533 211.107ZM127.869 218.391C127.869 218.117 127.936 217.924 128.068 217.811C128.201 217.693 128.363 217.635 128.555 217.635C128.754 217.635 128.922 217.693 129.059 217.811C129.195 217.924 129.264 218.117 129.264 218.391C129.264 218.66 129.195 218.857 129.059 218.982C128.922 219.104 128.754 219.164 128.555 219.164C128.363 219.164 128.201 219.104 128.068 218.982C127.936 218.857 127.869 218.66 127.869 218.391ZM127.869 213.193C127.869 212.912 127.936 212.715 128.068 212.602C128.201 212.484 128.363 212.426 128.555 212.426C128.754 212.426 128.922 212.484 129.059 212.602C129.195 212.715 129.264 212.912 129.264 213.193C129.264 213.459 129.195 213.652 129.059 213.773C128.922 213.895 128.754 213.955 128.555 213.955C128.363 213.955 128.201 213.895 128.068 213.773C127.936 213.652 127.869 213.459 127.869 213.193ZM136.395 214.705C136.395 215.4 136.342 216.021 136.236 216.568C136.131 217.115 135.965 217.578 135.738 217.957C135.512 218.336 135.219 218.625 134.859 218.824C134.5 219.02 134.068 219.117 133.564 219.117C132.928 219.117 132.4 218.943 131.982 218.596C131.568 218.248 131.258 217.746 131.051 217.09C130.848 216.43 130.746 215.635 130.746 214.705C130.746 213.791 130.838 213.006 131.021 212.35C131.209 211.689 131.51 211.184 131.924 210.832C132.338 210.477 132.885 210.299 133.564 210.299C134.209 210.299 134.74 210.475 135.158 210.826C135.576 211.174 135.887 211.678 136.09 212.338C136.293 212.994 136.395 213.783 136.395 214.705ZM131.725 214.705C131.725 215.502 131.785 216.166 131.906 216.697C132.027 217.229 132.223 217.627 132.492 217.893C132.766 218.154 133.123 218.285 133.564 218.285C134.006 218.285 134.361 218.154 134.631 217.893C134.904 217.631 135.102 217.234 135.223 216.703C135.348 216.172 135.41 215.506 135.41 214.705C135.41 213.92 135.35 213.264 135.229 212.736C135.107 212.205 134.912 211.807 134.643 211.541C134.373 211.271 134.014 211.137 133.564 211.137C133.115 211.137 132.756 211.271 132.486 211.541C132.217 211.807 132.021 212.205 131.9 212.736C131.783 213.264 131.725 213.92 131.725 214.705ZM143.262 214.705C143.262 215.4 143.209 216.021 143.104 216.568C142.998 217.115 142.832 217.578 142.605 217.957C142.379 218.336 142.086 218.625 141.727 218.824C141.367 219.02 140.936 219.117 140.432 219.117C139.795 219.117 139.268 218.943 138.85 218.596C138.436 218.248 138.125 217.746 137.918 217.09C137.715 216.43 137.613 215.635 137.613 214.705C137.613 213.791 137.705 213.006 137.889 212.35C138.076 211.689 138.377 211.184 138.791 210.832C139.205 210.477 139.752 210.299 140.432 210.299C141.076 210.299 141.607 210.475 142.025 210.826C142.443 211.174 142.754 211.678 142.957 212.338C143.16 212.994 143.262 213.783 143.262 214.705ZM138.592 214.705C138.592 215.502 138.652 216.166 138.773 216.697C138.895 217.229 139.09 217.627 139.359 217.893C139.633 218.154 139.99 218.285 140.432 218.285C140.873 218.285 141.229 218.154 141.498 217.893C141.771 217.631 141.969 217.234 142.09 216.703C142.215 216.172 142.277 215.506 142.277 214.705C142.277 213.92 142.217 213.264 142.096 212.736C141.975 212.205 141.779 211.807 141.51 211.541C141.24 211.271 140.881 211.137 140.432 211.137C139.982 211.137 139.623 211.271 139.354 211.541C139.084 211.807 138.889 212.205 138.768 212.736C138.65 213.264 138.592 213.92 138.592 214.705Z" fill="#7D7D7D"/>
<path d="M230.006 84.3636V96H227.545V86.6989H227.477L224.812 88.3693V86.1875L227.693 84.3636H230.006ZM232.771 96V94.2273L236.913 90.392C237.266 90.0511 237.561 89.7443 237.8 89.4716C238.042 89.1989 238.226 88.9318 238.351 88.6705C238.476 88.4053 238.538 88.1193 238.538 87.8125C238.538 87.4716 238.461 87.178 238.305 86.9318C238.15 86.6818 237.938 86.4905 237.669 86.358C237.4 86.2216 237.095 86.1534 236.754 86.1534C236.398 86.1534 236.088 86.2254 235.822 86.3693C235.557 86.5133 235.353 86.7197 235.209 86.9886C235.065 87.2576 234.993 87.5777 234.993 87.9489H232.658C232.658 87.1875 232.83 86.5265 233.175 85.9659C233.519 85.4053 234.002 84.9716 234.624 84.6648C235.245 84.358 235.961 84.2045 236.771 84.2045C237.605 84.2045 238.33 84.3523 238.947 84.6477C239.569 84.9394 240.052 85.3447 240.396 85.8636C240.741 86.3826 240.913 86.9773 240.913 87.6477C240.913 88.0871 240.826 88.5208 240.652 88.9489C240.482 89.3769 240.177 89.8523 239.737 90.375C239.298 90.8939 238.679 91.517 237.879 92.2443L236.18 93.9091V93.9886H241.067V96H232.771ZM245.582 89.8693C245.067 89.8693 244.598 89.7443 244.173 89.4943C243.753 89.2405 243.418 88.9034 243.168 88.483C242.918 88.0587 242.793 87.589 242.793 87.0739C242.793 86.5625 242.918 86.0966 243.168 85.6761C243.418 85.2519 243.753 84.9148 244.173 84.6648C244.598 84.411 245.067 84.2841 245.582 84.2841C246.098 84.2841 246.565 84.411 246.986 84.6648C247.41 84.9148 247.747 85.2519 247.997 85.6761C248.247 86.0966 248.372 86.5625 248.372 87.0739C248.372 87.589 248.247 88.0587 247.997 88.483C247.747 88.9034 247.41 89.2405 246.986 89.4943C246.565 89.7443 246.098 89.8693 245.582 89.8693ZM245.582 88.2557C245.802 88.2557 246.001 88.2027 246.179 88.0966C246.357 87.9905 246.497 87.8485 246.599 87.6705C246.705 87.4924 246.759 87.2936 246.759 87.0739C246.759 86.858 246.705 86.661 246.599 86.483C246.497 86.3049 246.357 86.1629 246.179 86.0568C246.001 85.9508 245.802 85.8977 245.582 85.8977C245.366 85.8977 245.17 85.9508 244.991 86.0568C244.813 86.1629 244.671 86.3049 244.565 86.483C244.459 86.661 244.406 86.858 244.406 87.0739C244.406 87.2936 244.459 87.4924 244.565 87.6705C244.671 87.8485 244.813 87.9905 244.991 88.0966C245.17 88.2027 245.366 88.2557 245.582 88.2557ZM260.247 88.4375H257.759C257.713 88.1155 257.62 87.8295 257.48 87.5795C257.34 87.3258 257.16 87.1098 256.94 86.9318C256.721 86.7538 256.467 86.6174 256.179 86.5227C255.895 86.428 255.586 86.3807 255.253 86.3807C254.651 86.3807 254.126 86.5303 253.679 86.8295C253.232 87.125 252.885 87.5568 252.639 88.125C252.393 88.6894 252.27 89.375 252.27 90.1818C252.27 91.0114 252.393 91.7083 252.639 92.2727C252.889 92.8371 253.238 93.2633 253.685 93.5511C254.132 93.839 254.649 93.983 255.236 93.983C255.565 93.983 255.87 93.9394 256.151 93.8523C256.435 93.7652 256.687 93.6383 256.906 93.4716C257.126 93.3011 257.308 93.0947 257.452 92.8523C257.599 92.6098 257.702 92.3333 257.759 92.0227L260.247 92.0341C260.183 92.5682 260.022 93.0833 259.764 93.5795C259.51 94.072 259.168 94.5133 258.736 94.9034C258.308 95.2898 257.796 95.5966 257.202 95.8239C256.611 96.0473 255.942 96.1591 255.196 96.1591C254.158 96.1591 253.23 95.9242 252.412 95.4545C251.598 94.9848 250.954 94.3049 250.48 93.4148C250.01 92.5246 249.776 91.447 249.776 90.1818C249.776 88.9129 250.014 87.8333 250.491 86.9432C250.969 86.053 251.616 85.375 252.435 84.9091C253.253 84.4394 254.173 84.2045 255.196 84.2045C255.87 84.2045 256.495 84.2992 257.071 84.4886C257.651 84.678 258.164 84.9545 258.611 85.3182C259.058 85.678 259.421 86.1193 259.702 86.642C259.986 87.1648 260.168 87.7633 260.247 88.4375Z" fill="#2C2C2C"/>
<path d="M237.34 214.084C237.34 214.604 237.303 215.109 237.229 215.602C237.158 216.094 237.035 216.553 236.859 216.979C236.688 217.404 236.453 217.777 236.156 218.098C235.859 218.418 235.486 218.67 235.037 218.854C234.592 219.033 234.059 219.123 233.438 219.123C233.27 219.123 233.078 219.111 232.863 219.088C232.648 219.068 232.473 219.039 232.336 219V218.156C232.48 218.207 232.65 218.248 232.846 218.279C233.041 218.307 233.232 218.32 233.42 218.32C234.15 218.32 234.725 218.164 235.143 217.852C235.561 217.535 235.861 217.107 236.045 216.568C236.229 216.025 236.332 215.416 236.355 214.74H236.285C236.168 214.928 236.014 215.102 235.822 215.262C235.635 215.418 235.406 215.545 235.137 215.643C234.867 215.736 234.553 215.783 234.193 215.783C233.697 215.783 233.264 215.682 232.893 215.479C232.525 215.275 232.238 214.98 232.031 214.594C231.828 214.207 231.727 213.74 231.727 213.193C231.727 212.604 231.838 212.094 232.061 211.664C232.287 211.23 232.604 210.896 233.01 210.662C233.416 210.428 233.895 210.311 234.445 210.311C234.867 210.311 235.254 210.391 235.605 210.551C235.957 210.711 236.262 210.951 236.52 211.271C236.781 211.588 236.982 211.98 237.123 212.449C237.268 212.918 237.34 213.463 237.34 214.084ZM234.445 211.137C233.926 211.137 233.504 211.307 233.18 211.646C232.859 211.986 232.699 212.498 232.699 213.182C232.699 213.748 232.838 214.195 233.115 214.523C233.393 214.852 233.82 215.016 234.398 215.016C234.797 215.016 235.141 214.936 235.43 214.775C235.723 214.615 235.947 214.412 236.104 214.166C236.264 213.92 236.344 213.668 236.344 213.41C236.344 213.152 236.305 212.891 236.227 212.625C236.152 212.359 236.037 212.115 235.881 211.893C235.725 211.666 235.527 211.484 235.289 211.348C235.051 211.207 234.77 211.137 234.445 211.137ZM238.869 218.391C238.869 218.117 238.936 217.924 239.068 217.811C239.201 217.693 239.363 217.635 239.555 217.635C239.754 217.635 239.922 217.693 240.059 217.811C240.195 217.924 240.264 218.117 240.264 218.391C240.264 218.66 240.195 218.857 240.059 218.982C239.922 219.104 239.754 219.164 239.555 219.164C239.363 219.164 239.201 219.104 239.068 218.982C238.936 218.857 238.869 218.66 238.869 218.391ZM238.869 213.193C238.869 212.912 238.936 212.715 239.068 212.602C239.201 212.484 239.363 212.426 239.555 212.426C239.754 212.426 239.922 212.484 240.059 212.602C240.195 212.715 240.264 212.912 240.264 213.193C240.264 213.459 240.195 213.652 240.059 213.773C239.922 213.895 239.754 213.955 239.555 213.955C239.363 213.955 239.201 213.895 239.068 213.773C238.936 213.652 238.869 213.459 238.869 213.193ZM247.395 214.705C247.395 215.4 247.342 216.021 247.236 216.568C247.131 217.115 246.965 217.578 246.738 217.957C246.512 218.336 246.219 218.625 245.859 218.824C245.5 219.02 245.068 219.117 244.564 219.117C243.928 219.117 243.4 218.943 242.982 218.596C242.568 218.248 242.258 217.746 242.051 217.09C241.848 216.43 241.746 215.635 241.746 214.705C241.746 213.791 241.838 213.006 242.021 212.35C242.209 211.689 242.51 211.184 242.924 210.832C243.338 210.477 243.885 210.299 244.564 210.299C245.209 210.299 245.74 210.475 246.158 210.826C246.576 211.174 246.887 211.678 247.09 212.338C247.293 212.994 247.395 213.783 247.395 214.705ZM242.725 214.705C242.725 215.502 242.785 216.166 242.906 216.697C243.027 217.229 243.223 217.627 243.492 217.893C243.766 218.154 244.123 218.285 244.564 218.285C245.006 218.285 245.361 218.154 245.631 217.893C245.904 217.631 246.102 217.234 246.223 216.703C246.348 216.172 246.41 215.506 246.41 214.705C246.41 213.92 246.35 213.264 246.229 212.736C246.107 212.205 245.912 211.807 245.643 211.541C245.373 211.271 245.014 211.137 244.564 211.137C244.115 211.137 243.756 211.271 243.486 211.541C243.217 211.807 243.021 212.205 242.9 212.736C242.783 213.264 242.725 213.92 242.725 214.705ZM254.262 214.705C254.262 215.4 254.209 216.021 254.104 216.568C253.998 217.115 253.832 217.578 253.605 217.957C253.379 218.336 253.086 218.625 252.727 218.824C252.367 219.02 251.936 219.117 251.432 219.117C250.795 219.117 250.268 218.943 249.85 218.596C249.436 218.248 249.125 217.746 248.918 217.09C248.715 216.43 248.613 215.635 248.613 214.705C248.613 213.791 248.705 213.006 248.889 212.35C249.076 211.689 249.377 211.184 249.791 210.832C250.205 210.477 250.752 210.299 251.432 210.299C252.076 210.299 252.607 210.475 253.025 210.826C253.443 211.174 253.754 211.678 253.957 212.338C254.16 212.994 254.262 213.783 254.262 214.705ZM249.592 214.705C249.592 215.502 249.652 216.166 249.773 216.697C249.895 217.229 250.09 217.627 250.359 217.893C250.633 218.154 250.99 218.285 251.432 218.285C251.873 218.285 252.229 218.154 252.498 217.893C252.771 217.631 252.969 217.234 253.09 216.703C253.215 216.172 253.277 215.506 253.277 214.705C253.277 213.92 253.217 213.264 253.096 212.736C252.975 212.205 252.779 211.807 252.51 211.541C252.24 211.271 251.881 211.137 251.432 211.137C250.982 211.137 250.623 211.271 250.354 211.541C250.084 211.807 249.889 212.205 249.768 212.736C249.65 213.264 249.592 213.92 249.592 214.705Z" fill="#7D7D7D"/>
<path d="M341.006 72.3636V84H338.545V74.6989H338.477L335.812 76.3693V74.1875L338.693 72.3636H341.006ZM348.834 72.3636V84H346.374V74.6989H346.305L343.641 76.3693V74.1875L346.521 72.3636H348.834ZM354.332 77.8693C353.817 77.8693 353.348 77.7443 352.923 77.4943C352.503 77.2405 352.168 76.9034 351.918 76.483C351.668 76.0587 351.543 75.589 351.543 75.0739C351.543 74.5625 351.668 74.0966 351.918 73.6761C352.168 73.2519 352.503 72.9148 352.923 72.6648C353.348 72.411 353.817 72.2841 354.332 72.2841C354.848 72.2841 355.315 72.411 355.736 72.6648C356.16 72.9148 356.497 73.2519 356.747 73.6761C356.997 74.0966 357.122 74.5625 357.122 75.0739C357.122 75.589 356.997 76.0587 356.747 76.483C356.497 76.9034 356.16 77.2405 355.736 77.4943C355.315 77.7443 354.848 77.8693 354.332 77.8693ZM354.332 76.2557C354.552 76.2557 354.751 76.2027 354.929 76.0966C355.107 75.9905 355.247 75.8485 355.349 75.6705C355.455 75.4924 355.509 75.2936 355.509 75.0739C355.509 74.858 355.455 74.661 355.349 74.483C355.247 74.3049 355.107 74.1629 354.929 74.0568C354.751 73.9508 354.552 73.8977 354.332 73.8977C354.116 73.8977 353.92 73.9508 353.741 74.0568C353.563 74.1629 353.421 74.3049 353.315 74.483C353.209 74.661 353.156 74.858 353.156 75.0739C353.156 75.2936 353.209 75.4924 353.315 75.6705C353.421 75.8485 353.563 75.9905 353.741 76.0966C353.92 76.2027 354.116 76.2557 354.332 76.2557ZM368.997 76.4375H366.509C366.463 76.1155 366.37 75.8295 366.23 75.5795C366.09 75.3258 365.91 75.1098 365.69 74.9318C365.471 74.7538 365.217 74.6174 364.929 74.5227C364.645 74.428 364.336 74.3807 364.003 74.3807C363.401 74.3807 362.876 74.5303 362.429 74.8295C361.982 75.125 361.635 75.5568 361.389 76.125C361.143 76.6894 361.02 77.375 361.02 78.1818C361.02 79.0114 361.143 79.7083 361.389 80.2727C361.639 80.8371 361.988 81.2633 362.435 81.5511C362.882 81.839 363.399 81.983 363.986 81.983C364.315 81.983 364.62 81.9394 364.901 81.8523C365.185 81.7652 365.437 81.6383 365.656 81.4716C365.876 81.3011 366.058 81.0947 366.202 80.8523C366.349 80.6098 366.452 80.3333 366.509 80.0227L368.997 80.0341C368.933 80.5682 368.772 81.0833 368.514 81.5795C368.26 82.072 367.918 82.5133 367.486 82.9034C367.058 83.2898 366.546 83.5966 365.952 83.8239C365.361 84.0473 364.692 84.1591 363.946 84.1591C362.908 84.1591 361.98 83.9242 361.162 83.4545C360.348 82.9848 359.704 82.3049 359.23 81.4148C358.76 80.5246 358.526 79.447 358.526 78.1818C358.526 76.9129 358.764 75.8333 359.241 74.9432C359.719 74.053 360.366 73.375 361.185 72.9091C362.003 72.4394 362.923 72.2045 363.946 72.2045C364.62 72.2045 365.245 72.2992 365.821 72.4886C366.401 72.678 366.914 72.9545 367.361 73.3182C367.808 73.678 368.171 74.1193 368.452 74.642C368.736 75.1648 368.918 75.7633 368.997 76.4375Z" fill="#2C2C2C"/>
<path d="M342.402 219H341.453V212.93C341.453 212.699 341.453 212.502 341.453 212.338C341.457 212.17 341.461 212.018 341.465 211.881C341.473 211.74 341.482 211.598 341.494 211.453C341.373 211.578 341.26 211.686 341.154 211.775C341.049 211.861 340.918 211.969 340.762 212.098L339.783 212.883L339.273 212.221L341.594 210.434H342.402V219ZM351.309 214.705C351.309 215.4 351.256 216.021 351.15 216.568C351.045 217.115 350.879 217.578 350.652 217.957C350.426 218.336 350.133 218.625 349.773 218.824C349.414 219.02 348.982 219.117 348.479 219.117C347.842 219.117 347.314 218.943 346.896 218.596C346.482 218.248 346.172 217.746 345.965 217.09C345.762 216.43 345.66 215.635 345.66 214.705C345.66 213.791 345.752 213.006 345.936 212.35C346.123 211.689 346.424 211.184 346.838 210.832C347.252 210.477 347.799 210.299 348.479 210.299C349.123 210.299 349.654 210.475 350.072 210.826C350.49 211.174 350.801 211.678 351.004 212.338C351.207 212.994 351.309 213.783 351.309 214.705ZM346.639 214.705C346.639 215.502 346.699 216.166 346.82 216.697C346.941 217.229 347.137 217.627 347.406 217.893C347.68 218.154 348.037 218.285 348.479 218.285C348.92 218.285 349.275 218.154 349.545 217.893C349.818 217.631 350.016 217.234 350.137 216.703C350.262 216.172 350.324 215.506 350.324 214.705C350.324 213.92 350.264 213.264 350.143 212.736C350.021 212.205 349.826 211.807 349.557 211.541C349.287 211.271 348.928 211.137 348.479 211.137C348.029 211.137 347.67 211.271 347.4 211.541C347.131 211.807 346.936 212.205 346.814 212.736C346.697 213.264 346.639 213.92 346.639 214.705ZM352.803 218.391C352.803 218.117 352.869 217.924 353.002 217.811C353.135 217.693 353.297 217.635 353.488 217.635C353.688 217.635 353.855 217.693 353.992 217.811C354.129 217.924 354.197 218.117 354.197 218.391C354.197 218.66 354.129 218.857 353.992 218.982C353.855 219.104 353.688 219.164 353.488 219.164C353.297 219.164 353.135 219.104 353.002 218.982C352.869 218.857 352.803 218.66 352.803 218.391ZM352.803 213.193C352.803 212.912 352.869 212.715 353.002 212.602C353.135 212.484 353.297 212.426 353.488 212.426C353.688 212.426 353.855 212.484 353.992 212.602C354.129 212.715 354.197 212.912 354.197 213.193C354.197 213.459 354.129 213.652 353.992 213.773C353.855 213.895 353.688 213.955 353.488 213.955C353.297 213.955 353.135 213.895 353.002 213.773C352.869 213.652 352.803 213.459 352.803 213.193ZM361.328 214.705C361.328 215.4 361.275 216.021 361.17 216.568C361.064 217.115 360.898 217.578 360.672 217.957C360.445 218.336 360.152 218.625 359.793 218.824C359.434 219.02 359.002 219.117 358.498 219.117C357.861 219.117 357.334 218.943 356.916 218.596C356.502 218.248 356.191 217.746 355.984 217.09C355.781 216.43 355.68 215.635 355.68 214.705C355.68 213.791 355.771 213.006 355.955 212.35C356.143 211.689 356.443 211.184 356.857 210.832C357.271 210.477 357.818 210.299 358.498 210.299C359.143 210.299 359.674 210.475 360.092 210.826C360.51 211.174 360.82 211.678 361.023 212.338C361.227 212.994 361.328 213.783 361.328 214.705ZM356.658 214.705C356.658 215.502 356.719 216.166 356.84 216.697C356.961 217.229 357.156 217.627 357.426 217.893C357.699 218.154 358.057 218.285 358.498 218.285C358.939 218.285 359.295 218.154 359.564 217.893C359.838 217.631 360.035 217.234 360.156 216.703C360.281 216.172 360.344 215.506 360.344 214.705C360.344 213.92 360.283 213.264 360.162 212.736C360.041 212.205 359.846 211.807 359.576 211.541C359.307 211.271 358.947 211.137 358.498 211.137C358.049 211.137 357.689 211.271 357.42 211.541C357.15 211.807 356.955 212.205 356.834 212.736C356.717 213.264 356.658 213.92 356.658 214.705ZM368.195 214.705C368.195 215.4 368.143 216.021 368.037 216.568C367.932 217.115 367.766 217.578 367.539 217.957C367.312 218.336 367.02 218.625 366.66 218.824C366.301 219.02 365.869 219.117 365.365 219.117C364.729 219.117 364.201 218.943 363.783 218.596C363.369 218.248 363.059 217.746 362.852 217.09C362.648 216.43 362.547 215.635 362.547 214.705C362.547 213.791 362.639 213.006 362.822 212.35C363.01 211.689 363.311 211.184 363.725 210.832C364.139 210.477 364.686 210.299 365.365 210.299C366.01 210.299 366.541 210.475 366.959 210.826C367.377 211.174 367.688 211.678 367.891 212.338C368.094 212.994 368.195 213.783 368.195 214.705ZM363.525 214.705C363.525 215.502 363.586 216.166 363.707 216.697C363.828 217.229 364.023 217.627 364.293 217.893C364.566 218.154 364.924 218.285 365.365 218.285C365.807 218.285 366.162 218.154 366.432 217.893C366.705 217.631 366.902 217.234 367.023 216.703C367.148 216.172 367.211 215.506 367.211 214.705C367.211 213.92 367.15 213.264 367.029 212.736C366.908 212.205 366.713 211.807 366.443 211.541C366.174 211.271 365.814 211.137 365.365 211.137C364.916 211.137 364.557 211.271 364.287 211.541C364.018 211.807 363.822 212.205 363.701 212.736C363.584 213.264 363.525 213.92 363.525 214.705Z" fill="#7D7D7D"/>
<path d="M452.006 40.3636V52H449.545V42.6989H449.477L446.812 44.3693V42.1875L449.693 40.3636H452.006ZM454.595 49.9545V48.017L459.453 40.3636H461.124V43.0455H460.135L457.072 47.892V47.983H463.976V49.9545H454.595ZM460.18 52V49.3636L460.226 48.5057V40.3636H462.533V52H460.18ZM468.348 45.8693C467.833 45.8693 467.363 45.7443 466.939 45.4943C466.518 45.2405 466.183 44.9034 465.933 44.483C465.683 44.0587 465.558 43.589 465.558 43.0739C465.558 42.5625 465.683 42.0966 465.933 41.6761C466.183 41.2519 466.518 40.9148 466.939 40.6648C467.363 40.411 467.833 40.2841 468.348 40.2841C468.863 40.2841 469.331 40.411 469.751 40.6648C470.176 40.9148 470.513 41.2519 470.763 41.6761C471.013 42.0966 471.138 42.5625 471.138 43.0739C471.138 43.589 471.013 44.0587 470.763 44.483C470.513 44.9034 470.176 45.2405 469.751 45.4943C469.331 45.7443 468.863 45.8693 468.348 45.8693ZM468.348 44.2557C468.568 44.2557 468.767 44.2027 468.945 44.0966C469.123 43.9905 469.263 43.8485 469.365 43.6705C469.471 43.4924 469.524 43.2936 469.524 43.0739C469.524 42.858 469.471 42.661 469.365 42.483C469.263 42.3049 469.123 42.1629 468.945 42.0568C468.767 41.9508 468.568 41.8977 468.348 41.8977C468.132 41.8977 467.935 41.9508 467.757 42.0568C467.579 42.1629 467.437 42.3049 467.331 42.483C467.225 42.661 467.172 42.858 467.172 43.0739C467.172 43.2936 467.225 43.4924 467.331 43.6705C467.437 43.8485 467.579 43.9905 467.757 44.0966C467.935 44.2027 468.132 44.2557 468.348 44.2557ZM483.013 44.4375H480.524C480.479 44.1155 480.386 43.8295 480.246 43.5795C480.106 43.3258 479.926 43.1098 479.706 42.9318C479.486 42.7538 479.232 42.6174 478.945 42.5227C478.661 42.428 478.352 42.3807 478.018 42.3807C477.416 42.3807 476.892 42.5303 476.445 42.8295C475.998 43.125 475.651 43.5568 475.405 44.125C475.159 44.6894 475.036 45.375 475.036 46.1818C475.036 47.0114 475.159 47.7083 475.405 48.2727C475.655 48.8371 476.003 49.2633 476.45 49.5511C476.897 49.839 477.414 49.983 478.001 49.983C478.331 49.983 478.636 49.9394 478.916 49.8523C479.2 49.7652 479.452 49.6383 479.672 49.4716C479.892 49.3011 480.073 49.0947 480.217 48.8523C480.365 48.6098 480.467 48.3333 480.524 48.0227L483.013 48.0341C482.948 48.5682 482.787 49.0833 482.53 49.5795C482.276 50.072 481.933 50.5133 481.501 50.9034C481.073 51.2898 480.562 51.5966 479.967 51.8239C479.376 52.0473 478.708 52.1591 477.962 52.1591C476.924 52.1591 475.996 51.9242 475.178 51.4545C474.363 50.9848 473.719 50.3049 473.246 49.4148C472.776 48.5246 472.541 47.447 472.541 46.1818C472.541 44.9129 472.78 43.8333 473.257 42.9432C473.734 42.053 474.382 41.375 475.2 40.9091C476.018 40.4394 476.939 40.2045 477.962 40.2045C478.636 40.2045 479.261 40.2992 479.837 40.4886C480.416 40.678 480.929 40.9545 481.376 41.3182C481.823 41.678 482.187 42.1193 482.467 42.642C482.751 43.1648 482.933 43.7633 483.013 44.4375Z" fill="#2C2C2C"/>
<path d="M453.402 219H452.453V212.93C452.453 212.699 452.453 212.502 452.453 212.338C452.457 212.17 452.461 212.018 452.465 211.881C452.473 211.74 452.482 211.598 452.494 211.453C452.373 211.578 452.26 211.686 452.154 211.775C452.049 211.861 451.918 211.969 451.762 212.098L450.783 212.883L450.273 212.221L452.594 210.434H453.402V219ZM460.27 219H459.32V212.93C459.32 212.699 459.32 212.502 459.32 212.338C459.324 212.17 459.328 212.018 459.332 211.881C459.34 211.74 459.35 211.598 459.361 211.453C459.24 211.578 459.127 211.686 459.021 211.775C458.916 211.861 458.785 211.969 458.629 212.098L457.65 212.883L457.141 212.221L459.461 210.434H460.27V219ZM463.803 218.391C463.803 218.117 463.869 217.924 464.002 217.811C464.135 217.693 464.297 217.635 464.488 217.635C464.688 217.635 464.855 217.693 464.992 217.811C465.129 217.924 465.197 218.117 465.197 218.391C465.197 218.66 465.129 218.857 464.992 218.982C464.855 219.104 464.688 219.164 464.488 219.164C464.297 219.164 464.135 219.104 464.002 218.982C463.869 218.857 463.803 218.66 463.803 218.391ZM463.803 213.193C463.803 212.912 463.869 212.715 464.002 212.602C464.135 212.484 464.297 212.426 464.488 212.426C464.688 212.426 464.855 212.484 464.992 212.602C465.129 212.715 465.197 212.912 465.197 213.193C465.197 213.459 465.129 213.652 464.992 213.773C464.855 213.895 464.688 213.955 464.488 213.955C464.297 213.955 464.135 213.895 464.002 213.773C463.869 213.652 463.803 213.459 463.803 213.193ZM472.328 214.705C472.328 215.4 472.275 216.021 472.17 216.568C472.064 217.115 471.898 217.578 471.672 217.957C471.445 218.336 471.152 218.625 470.793 218.824C470.434 219.02 470.002 219.117 469.498 219.117C468.861 219.117 468.334 218.943 467.916 218.596C467.502 218.248 467.191 217.746 466.984 217.09C466.781 216.43 466.68 215.635 466.68 214.705C466.68 213.791 466.771 213.006 466.955 212.35C467.143 211.689 467.443 211.184 467.857 210.832C468.271 210.477 468.818 210.299 469.498 210.299C470.143 210.299 470.674 210.475 471.092 210.826C471.51 211.174 471.82 211.678 472.023 212.338C472.227 212.994 472.328 213.783 472.328 214.705ZM467.658 214.705C467.658 215.502 467.719 216.166 467.84 216.697C467.961 217.229 468.156 217.627 468.426 217.893C468.699 218.154 469.057 218.285 469.498 218.285C469.939 218.285 470.295 218.154 470.564 217.893C470.838 217.631 471.035 217.234 471.156 216.703C471.281 216.172 471.344 215.506 471.344 214.705C471.344 213.92 471.283 213.264 471.162 212.736C471.041 212.205 470.846 211.807 470.576 211.541C470.307 211.271 469.947 211.137 469.498 211.137C469.049 211.137 468.689 211.271 468.42 211.541C468.15 211.807 467.955 212.205 467.834 212.736C467.717 213.264 467.658 213.92 467.658 214.705ZM479.195 214.705C479.195 215.4 479.143 216.021 479.037 216.568C478.932 217.115 478.766 217.578 478.539 217.957C478.312 218.336 478.02 218.625 477.66 218.824C477.301 219.02 476.869 219.117 476.365 219.117C475.729 219.117 475.201 218.943 474.783 218.596C474.369 218.248 474.059 217.746 473.852 217.09C473.648 216.43 473.547 215.635 473.547 214.705C473.547 213.791 473.639 213.006 473.822 212.35C474.01 211.689 474.311 211.184 474.725 210.832C475.139 210.477 475.686 210.299 476.365 210.299C477.01 210.299 477.541 210.475 477.959 210.826C478.377 211.174 478.688 211.678 478.891 212.338C479.094 212.994 479.195 213.783 479.195 214.705ZM474.525 214.705C474.525 215.502 474.586 216.166 474.707 216.697C474.828 217.229 475.023 217.627 475.293 217.893C475.566 218.154 475.924 218.285 476.365 218.285C476.807 218.285 477.162 218.154 477.432 217.893C477.705 217.631 477.902 217.234 478.023 216.703C478.148 216.172 478.211 215.506 478.211 214.705C478.211 213.92 478.15 213.264 478.029 212.736C477.908 212.205 477.713 211.807 477.443 211.541C477.174 211.271 476.814 211.137 476.365 211.137C475.916 211.137 475.557 211.271 475.287 211.541C475.018 211.807 474.822 212.205 474.701 212.736C474.584 213.264 474.525 213.92 474.525 214.705Z" fill="#7D7D7D"/>
<path d="M563.006 68.3636V80H560.545V70.6989H560.477L557.812 72.3693V70.1875L560.693 68.3636H563.006ZM565.771 80V78.2273L569.913 74.392C570.266 74.0511 570.561 73.7443 570.8 73.4716C571.042 73.1989 571.226 72.9318 571.351 72.6705C571.476 72.4053 571.538 72.1193 571.538 71.8125C571.538 71.4716 571.461 71.178 571.305 70.9318C571.15 70.6818 570.938 70.4905 570.669 70.358C570.4 70.2216 570.095 70.1534 569.754 70.1534C569.398 70.1534 569.088 70.2254 568.822 70.3693C568.557 70.5133 568.353 70.7197 568.209 70.9886C568.065 71.2576 567.993 71.5777 567.993 71.9489H565.658C565.658 71.1875 565.83 70.5265 566.175 69.9659C566.519 69.4053 567.002 68.9716 567.624 68.6648C568.245 68.358 568.961 68.2045 569.771 68.2045C570.605 68.2045 571.33 68.3523 571.947 68.6477C572.569 68.9394 573.052 69.3447 573.396 69.8636C573.741 70.3826 573.913 70.9773 573.913 71.6477C573.913 72.0871 573.826 72.5208 573.652 72.9489C573.482 73.3769 573.177 73.8523 572.737 74.375C572.298 74.8939 571.679 75.517 570.879 76.2443L569.18 77.9091V77.9886H574.067V80H565.771ZM578.582 73.8693C578.067 73.8693 577.598 73.7443 577.173 73.4943C576.753 73.2405 576.418 72.9034 576.168 72.483C575.918 72.0587 575.793 71.589 575.793 71.0739C575.793 70.5625 575.918 70.0966 576.168 69.6761C576.418 69.2519 576.753 68.9148 577.173 68.6648C577.598 68.411 578.067 68.2841 578.582 68.2841C579.098 68.2841 579.565 68.411 579.986 68.6648C580.41 68.9148 580.747 69.2519 580.997 69.6761C581.247 70.0966 581.372 70.5625 581.372 71.0739C581.372 71.589 581.247 72.0587 580.997 72.483C580.747 72.9034 580.41 73.2405 579.986 73.4943C579.565 73.7443 579.098 73.8693 578.582 73.8693ZM578.582 72.2557C578.802 72.2557 579.001 72.2027 579.179 72.0966C579.357 71.9905 579.497 71.8485 579.599 71.6705C579.705 71.4924 579.759 71.2936 579.759 71.0739C579.759 70.858 579.705 70.661 579.599 70.483C579.497 70.3049 579.357 70.1629 579.179 70.0568C579.001 69.9508 578.802 69.8977 578.582 69.8977C578.366 69.8977 578.17 69.9508 577.991 70.0568C577.813 70.1629 577.671 70.3049 577.565 70.483C577.459 70.661 577.406 70.858 577.406 71.0739C577.406 71.2936 577.459 71.4924 577.565 71.6705C577.671 71.8485 577.813 71.9905 577.991 72.0966C578.17 72.2027 578.366 72.2557 578.582 72.2557ZM593.247 72.4375H590.759C590.713 72.1155 590.62 71.8295 590.48 71.5795C590.34 71.3258 590.16 71.1098 589.94 70.9318C589.721 70.7538 589.467 70.6174 589.179 70.5227C588.895 70.428 588.586 70.3807 588.253 70.3807C587.651 70.3807 587.126 70.5303 586.679 70.8295C586.232 71.125 585.885 71.5568 585.639 72.125C585.393 72.6894 585.27 73.375 585.27 74.1818C585.27 75.0114 585.393 75.7083 585.639 76.2727C585.889 76.8371 586.238 77.2633 586.685 77.5511C587.132 77.839 587.649 77.983 588.236 77.983C588.565 77.983 588.87 77.9394 589.151 77.8523C589.435 77.7652 589.687 77.6383 589.906 77.4716C590.126 77.3011 590.308 77.0947 590.452 76.8523C590.599 76.6098 590.702 76.3333 590.759 76.0227L593.247 76.0341C593.183 76.5682 593.022 77.0833 592.764 77.5795C592.51 78.072 592.168 78.5133 591.736 78.9034C591.308 79.2898 590.796 79.5966 590.202 79.8239C589.611 80.0473 588.942 80.1591 588.196 80.1591C587.158 80.1591 586.23 79.9242 585.412 79.4545C584.598 78.9848 583.954 78.3049 583.48 77.4148C583.01 76.5246 582.776 75.447 582.776 74.1818C582.776 72.9129 583.014 71.8333 583.491 70.9432C583.969 70.053 584.616 69.375 585.435 68.9091C586.253 68.4394 587.173 68.2045 588.196 68.2045C588.87 68.2045 589.495 68.2992 590.071 68.4886C590.651 68.678 591.164 68.9545 591.611 69.3182C592.058 69.678 592.421 70.1193 592.702 70.642C592.986 71.1648 593.168 71.7633 593.247 72.4375Z" fill="#2C2C2C"/>
<path d="M564.402 219H563.453V212.93C563.453 212.699 563.453 212.502 563.453 212.338C563.457 212.17 563.461 212.018 563.465 211.881C563.473 211.74 563.482 211.598 563.494 211.453C563.373 211.578 563.26 211.686 563.154 211.775C563.049 211.861 562.918 211.969 562.762 212.098L561.783 212.883L561.273 212.221L563.594 210.434H564.402V219ZM573.262 219H567.648V218.186L569.939 215.859C570.365 215.43 570.723 215.047 571.012 214.711C571.305 214.375 571.527 214.045 571.68 213.721C571.832 213.393 571.908 213.033 571.908 212.643C571.908 212.158 571.764 211.789 571.475 211.535C571.189 211.277 570.812 211.148 570.344 211.148C569.934 211.148 569.57 211.219 569.254 211.359C568.938 211.5 568.613 211.699 568.281 211.957L567.76 211.301C567.986 211.109 568.232 210.939 568.498 210.791C568.768 210.643 569.055 210.525 569.359 210.439C569.668 210.354 569.996 210.311 570.344 210.311C570.871 210.311 571.326 210.402 571.709 210.586C572.092 210.77 572.387 211.031 572.594 211.371C572.805 211.711 572.91 212.115 572.91 212.584C572.91 213.037 572.82 213.459 572.641 213.85C572.461 214.236 572.209 214.621 571.885 215.004C571.561 215.383 571.182 215.785 570.748 216.211L568.885 218.068V218.109H573.262V219ZM574.803 218.391C574.803 218.117 574.869 217.924 575.002 217.811C575.135 217.693 575.297 217.635 575.488 217.635C575.688 217.635 575.855 217.693 575.992 217.811C576.129 217.924 576.197 218.117 576.197 218.391C576.197 218.66 576.129 218.857 575.992 218.982C575.855 219.104 575.688 219.164 575.488 219.164C575.297 219.164 575.135 219.104 575.002 218.982C574.869 218.857 574.803 218.66 574.803 218.391ZM574.803 213.193C574.803 212.912 574.869 212.715 575.002 212.602C575.135 212.484 575.297 212.426 575.488 212.426C575.688 212.426 575.855 212.484 575.992 212.602C576.129 212.715 576.197 212.912 576.197 213.193C576.197 213.459 576.129 213.652 575.992 213.773C575.855 213.895 575.688 213.955 575.488 213.955C575.297 213.955 575.135 213.895 575.002 213.773C574.869 213.652 574.803 213.459 574.803 213.193ZM583.328 214.705C583.328 215.4 583.275 216.021 583.17 216.568C583.064 217.115 582.898 217.578 582.672 217.957C582.445 218.336 582.152 218.625 581.793 218.824C581.434 219.02 581.002 219.117 580.498 219.117C579.861 219.117 579.334 218.943 578.916 218.596C578.502 218.248 578.191 217.746 577.984 217.09C577.781 216.43 577.68 215.635 577.68 214.705C577.68 213.791 577.771 213.006 577.955 212.35C578.143 211.689 578.443 211.184 578.857 210.832C579.271 210.477 579.818 210.299 580.498 210.299C581.143 210.299 581.674 210.475 582.092 210.826C582.51 211.174 582.82 211.678 583.023 212.338C583.227 212.994 583.328 213.783 583.328 214.705ZM578.658 214.705C578.658 215.502 578.719 216.166 578.84 216.697C578.961 217.229 579.156 217.627 579.426 217.893C579.699 218.154 580.057 218.285 580.498 218.285C580.939 218.285 581.295 218.154 581.564 217.893C581.838 217.631 582.035 217.234 582.156 216.703C582.281 216.172 582.344 215.506 582.344 214.705C582.344 213.92 582.283 213.264 582.162 212.736C582.041 212.205 581.846 211.807 581.576 211.541C581.307 211.271 580.947 211.137 580.498 211.137C580.049 211.137 579.689 211.271 579.42 211.541C579.15 211.807 578.955 212.205 578.834 212.736C578.717 213.264 578.658 213.92 578.658 214.705ZM590.195 214.705C590.195 215.4 590.143 216.021 590.037 216.568C589.932 217.115 589.766 217.578 589.539 217.957C589.312 218.336 589.02 218.625 588.66 218.824C588.301 219.02 587.869 219.117 587.365 219.117C586.729 219.117 586.201 218.943 585.783 218.596C585.369 218.248 585.059 217.746 584.852 217.09C584.648 216.43 584.547 215.635 584.547 214.705C584.547 213.791 584.639 213.006 584.822 212.35C585.01 211.689 585.311 211.184 585.725 210.832C586.139 210.477 586.686 210.299 587.365 210.299C588.01 210.299 588.541 210.475 588.959 210.826C589.377 211.174 589.688 211.678 589.891 212.338C590.094 212.994 590.195 213.783 590.195 214.705ZM585.525 214.705C585.525 215.502 585.586 216.166 585.707 216.697C585.828 217.229 586.023 217.627 586.293 217.893C586.566 218.154 586.924 218.285 587.365 218.285C587.807 218.285 588.162 218.154 588.432 217.893C588.705 217.631 588.902 217.234 589.023 216.703C589.148 216.172 589.211 215.506 589.211 214.705C589.211 213.92 589.15 213.264 589.029 212.736C588.908 212.205 588.713 211.807 588.443 211.541C588.174 211.271 587.814 211.137 587.365 211.137C586.916 211.137 586.557 211.271 586.287 211.541C586.018 211.807 585.822 212.205 585.701 212.736C585.584 213.264 585.525 213.92 585.525 214.705Z" fill="#7D7D7D"/>
<path d="M674.006 40.3636V52H671.545V42.6989H671.477L668.812 44.3693V42.1875L671.693 40.3636H674.006ZM676.595 49.9545V48.017L681.453 40.3636H683.124V43.0455H682.135L679.072 47.892V47.983H685.976V49.9545H676.595ZM682.18 52V49.3636L682.226 48.5057V40.3636H684.533V52H682.18ZM690.348 45.8693C689.833 45.8693 689.363 45.7443 688.939 45.4943C688.518 45.2405 688.183 44.9034 687.933 44.483C687.683 44.0587 687.558 43.589 687.558 43.0739C687.558 42.5625 687.683 42.0966 687.933 41.6761C688.183 41.2519 688.518 40.9148 688.939 40.6648C689.363 40.411 689.833 40.2841 690.348 40.2841C690.863 40.2841 691.331 40.411 691.751 40.6648C692.176 40.9148 692.513 41.2519 692.763 41.6761C693.013 42.0966 693.138 42.5625 693.138 43.0739C693.138 43.589 693.013 44.0587 692.763 44.483C692.513 44.9034 692.176 45.2405 691.751 45.4943C691.331 45.7443 690.863 45.8693 690.348 45.8693ZM690.348 44.2557C690.568 44.2557 690.767 44.2027 690.945 44.0966C691.123 43.9905 691.263 43.8485 691.365 43.6705C691.471 43.4924 691.524 43.2936 691.524 43.0739C691.524 42.858 691.471 42.661 691.365 42.483C691.263 42.3049 691.123 42.1629 690.945 42.0568C690.767 41.9508 690.568 41.8977 690.348 41.8977C690.132 41.8977 689.935 41.9508 689.757 42.0568C689.579 42.1629 689.437 42.3049 689.331 42.483C689.225 42.661 689.172 42.858 689.172 43.0739C689.172 43.2936 689.225 43.4924 689.331 43.6705C689.437 43.8485 689.579 43.9905 689.757 44.0966C689.935 44.2027 690.132 44.2557 690.348 44.2557ZM705.013 44.4375H702.524C702.479 44.1155 702.386 43.8295 702.246 43.5795C702.106 43.3258 701.926 43.1098 701.706 42.9318C701.486 42.7538 701.232 42.6174 700.945 42.5227C700.661 42.428 700.352 42.3807 700.018 42.3807C699.416 42.3807 698.892 42.5303 698.445 42.8295C697.998 43.125 697.651 43.5568 697.405 44.125C697.159 44.6894 697.036 45.375 697.036 46.1818C697.036 47.0114 697.159 47.7083 697.405 48.2727C697.655 48.8371 698.003 49.2633 698.45 49.5511C698.897 49.839 699.414 49.983 700.001 49.983C700.331 49.983 700.636 49.9394 700.916 49.8523C701.2 49.7652 701.452 49.6383 701.672 49.4716C701.892 49.3011 702.073 49.0947 702.217 48.8523C702.365 48.6098 702.467 48.3333 702.524 48.0227L705.013 48.0341C704.948 48.5682 704.787 49.0833 704.53 49.5795C704.276 50.072 703.933 50.5133 703.501 50.9034C703.073 51.2898 702.562 51.5966 701.967 51.8239C701.376 52.0473 700.708 52.1591 699.962 52.1591C698.924 52.1591 697.996 51.9242 697.178 51.4545C696.363 50.9848 695.719 50.3049 695.246 49.4148C694.776 48.5246 694.541 47.447 694.541 46.1818C694.541 44.9129 694.78 43.8333 695.257 42.9432C695.734 42.053 696.382 41.375 697.2 40.9091C698.018 40.4394 698.939 40.2045 699.962 40.2045C700.636 40.2045 701.261 40.2992 701.837 40.4886C702.416 40.678 702.929 40.9545 703.376 41.3182C703.823 41.678 704.187 42.1193 704.467 42.642C704.751 43.1648 704.933 43.7633 705.013 44.4375Z" fill="#2C2C2C"/>
<path d="M675.402 219H674.453V212.93C674.453 212.699 674.453 212.502 674.453 212.338C674.457 212.17 674.461 212.018 674.465 211.881C674.473 211.74 674.482 211.598 674.494 211.453C674.373 211.578 674.26 211.686 674.154 211.775C674.049 211.861 673.918 211.969 673.762 212.098L672.783 212.883L672.273 212.221L674.594 210.434H675.402V219ZM683.945 212.432C683.945 212.814 683.871 213.146 683.723 213.428C683.574 213.709 683.367 213.939 683.102 214.119C682.836 214.295 682.523 214.418 682.164 214.488V214.535C682.844 214.621 683.354 214.84 683.693 215.191C684.037 215.543 684.209 216.004 684.209 216.574C684.209 217.07 684.092 217.51 683.857 217.893C683.627 218.275 683.271 218.576 682.791 218.795C682.314 219.01 681.703 219.117 680.957 219.117C680.504 219.117 680.084 219.08 679.697 219.006C679.314 218.936 678.947 218.816 678.596 218.648V217.734C678.951 217.91 679.338 218.049 679.756 218.15C680.174 218.248 680.578 218.297 680.969 218.297C681.75 218.297 682.314 218.143 682.662 217.834C683.01 217.521 683.184 217.096 683.184 216.557C683.184 216.186 683.086 215.887 682.891 215.66C682.699 215.43 682.422 215.262 682.059 215.156C681.699 215.047 681.266 214.992 680.758 214.992H679.902V214.16H680.764C681.229 214.16 681.623 214.092 681.947 213.955C682.271 213.818 682.518 213.627 682.686 213.381C682.857 213.131 682.943 212.836 682.943 212.496C682.943 212.062 682.799 211.729 682.51 211.494C682.221 211.256 681.828 211.137 681.332 211.137C681.027 211.137 680.75 211.168 680.5 211.23C680.25 211.293 680.016 211.379 679.797 211.488C679.578 211.598 679.359 211.725 679.141 211.869L678.648 211.201C678.961 210.959 679.342 210.75 679.791 210.574C680.24 210.398 680.75 210.311 681.32 210.311C682.195 210.311 682.852 210.51 683.289 210.908C683.727 211.307 683.945 211.814 683.945 212.432ZM685.803 218.391C685.803 218.117 685.869 217.924 686.002 217.811C686.135 217.693 686.297 217.635 686.488 217.635C686.688 217.635 686.855 217.693 686.992 217.811C687.129 217.924 687.197 218.117 687.197 218.391C687.197 218.66 687.129 218.857 686.992 218.982C686.855 219.104 686.688 219.164 686.488 219.164C686.297 219.164 686.135 219.104 686.002 218.982C685.869 218.857 685.803 218.66 685.803 218.391ZM685.803 213.193C685.803 212.912 685.869 212.715 686.002 212.602C686.135 212.484 686.297 212.426 686.488 212.426C686.688 212.426 686.855 212.484 686.992 212.602C687.129 212.715 687.197 212.912 687.197 213.193C687.197 213.459 687.129 213.652 686.992 213.773C686.855 213.895 686.688 213.955 686.488 213.955C686.297 213.955 686.135 213.895 686.002 213.773C685.869 213.652 685.803 213.459 685.803 213.193ZM694.328 214.705C694.328 215.4 694.275 216.021 694.17 216.568C694.064 217.115 693.898 217.578 693.672 217.957C693.445 218.336 693.152 218.625 692.793 218.824C692.434 219.02 692.002 219.117 691.498 219.117C690.861 219.117 690.334 218.943 689.916 218.596C689.502 218.248 689.191 217.746 688.984 217.09C688.781 216.43 688.68 215.635 688.68 214.705C688.68 213.791 688.771 213.006 688.955 212.35C689.143 211.689 689.443 211.184 689.857 210.832C690.271 210.477 690.818 210.299 691.498 210.299C692.143 210.299 692.674 210.475 693.092 210.826C693.51 211.174 693.82 211.678 694.023 212.338C694.227 212.994 694.328 213.783 694.328 214.705ZM689.658 214.705C689.658 215.502 689.719 216.166 689.84 216.697C689.961 217.229 690.156 217.627 690.426 217.893C690.699 218.154 691.057 218.285 691.498 218.285C691.939 218.285 692.295 218.154 692.564 217.893C692.838 217.631 693.035 217.234 693.156 216.703C693.281 216.172 693.344 215.506 693.344 214.705C693.344 213.92 693.283 213.264 693.162 212.736C693.041 212.205 692.846 211.807 692.576 211.541C692.307 211.271 691.947 211.137 691.498 211.137C691.049 211.137 690.689 211.271 690.42 211.541C690.15 211.807 689.955 212.205 689.834 212.736C689.717 213.264 689.658 213.92 689.658 214.705ZM701.195 214.705C701.195 215.4 701.143 216.021 701.037 216.568C700.932 217.115 700.766 217.578 700.539 217.957C700.312 218.336 700.02 218.625 699.66 218.824C699.301 219.02 698.869 219.117 698.365 219.117C697.729 219.117 697.201 218.943 696.783 218.596C696.369 218.248 696.059 217.746 695.852 217.09C695.648 216.43 695.547 215.635 695.547 214.705C695.547 213.791 695.639 213.006 695.822 212.35C696.01 211.689 696.311 211.184 696.725 210.832C697.139 210.477 697.686 210.299 698.365 210.299C699.01 210.299 699.541 210.475 699.959 210.826C700.377 211.174 700.688 211.678 700.891 212.338C701.094 212.994 701.195 213.783 701.195 214.705ZM696.525 214.705C696.525 215.502 696.586 216.166 696.707 216.697C696.828 217.229 697.023 217.627 697.293 217.893C697.566 218.154 697.924 218.285 698.365 218.285C698.807 218.285 699.162 218.154 699.432 217.893C699.705 217.631 699.902 217.234 700.023 216.703C700.148 216.172 700.211 215.506 700.211 214.705C700.211 213.92 700.15 213.264 700.029 212.736C699.908 212.205 699.713 211.807 699.443 211.541C699.174 211.271 698.814 211.137 698.365 211.137C697.916 211.137 697.557 211.271 697.287 211.541C697.018 211.807 696.822 212.205 696.701 212.736C696.584 213.264 696.525 213.92 696.525 214.705Z" fill="#7D7D7D"/>
<path d="M785.006 22.3636V34H782.545V24.6989H782.477L779.812 26.3693V24.1875L782.693 22.3636H785.006ZM792.021 34.1591C791.218 34.1591 790.502 34.0114 789.874 33.7159C789.249 33.4205 788.752 33.0133 788.385 32.4943C788.018 31.9754 787.826 31.3807 787.811 30.7102H790.197C790.224 31.161 790.413 31.5265 790.766 31.8068C791.118 32.0871 791.536 32.2273 792.021 32.2273C792.408 32.2273 792.749 32.142 793.044 31.9716C793.343 31.7973 793.576 31.5568 793.743 31.25C793.913 30.9394 793.999 30.5833 793.999 30.1818C793.999 29.7727 793.911 29.4129 793.737 29.1023C793.567 28.7917 793.33 28.5492 793.027 28.375C792.724 28.2008 792.377 28.1117 791.987 28.108C791.646 28.108 791.315 28.178 790.993 28.3182C790.675 28.4583 790.427 28.6496 790.249 28.892L788.061 28.5L788.612 22.3636H795.726V24.375H790.641L790.339 27.2898H790.408C790.612 27.0019 790.921 26.7633 791.334 26.5739C791.747 26.3845 792.209 26.2898 792.72 26.2898C793.421 26.2898 794.046 26.4545 794.595 26.7841C795.144 27.1136 795.578 27.5663 795.896 28.142C796.214 28.714 796.372 29.3731 796.368 30.1193C796.372 30.9034 796.19 31.6004 795.822 32.2102C795.459 32.8163 794.949 33.2936 794.294 33.642C793.643 33.9867 792.885 34.1591 792.021 34.1591ZM800.817 27.8693C800.302 27.8693 799.832 27.7443 799.408 27.4943C798.987 27.2405 798.652 26.9034 798.402 26.483C798.152 26.0587 798.027 25.589 798.027 25.0739C798.027 24.5625 798.152 24.0966 798.402 23.6761C798.652 23.2519 798.987 22.9148 799.408 22.6648C799.832 22.411 800.302 22.2841 800.817 22.2841C801.332 22.2841 801.8 22.411 802.22 22.6648C802.644 22.9148 802.982 23.2519 803.232 23.6761C803.482 24.0966 803.607 24.5625 803.607 25.0739C803.607 25.589 803.482 26.0587 803.232 26.483C802.982 26.9034 802.644 27.2405 802.22 27.4943C801.8 27.7443 801.332 27.8693 800.817 27.8693ZM800.817 26.2557C801.036 26.2557 801.235 26.2027 801.413 26.0966C801.591 25.9905 801.732 25.8485 801.834 25.6705C801.94 25.4924 801.993 25.2936 801.993 25.0739C801.993 24.858 801.94 24.661 801.834 24.483C801.732 24.3049 801.591 24.1629 801.413 24.0568C801.235 23.9508 801.036 23.8977 800.817 23.8977C800.601 23.8977 800.404 23.9508 800.226 24.0568C800.048 24.1629 799.906 24.3049 799.8 24.483C799.694 24.661 799.641 24.858 799.641 25.0739C799.641 25.2936 799.694 25.4924 799.8 25.6705C799.906 25.8485 800.048 25.9905 800.226 26.0966C800.404 26.2027 800.601 26.2557 800.817 26.2557ZM815.482 26.4375H812.993C812.947 26.1155 812.855 25.8295 812.714 25.5795C812.574 25.3258 812.394 25.1098 812.175 24.9318C811.955 24.7538 811.701 24.6174 811.413 24.5227C811.129 24.428 810.821 24.3807 810.487 24.3807C809.885 24.3807 809.36 24.5303 808.913 24.8295C808.466 25.125 808.12 25.5568 807.874 26.125C807.627 26.6894 807.504 27.375 807.504 28.1818C807.504 29.0114 807.627 29.7083 807.874 30.2727C808.124 30.8371 808.472 31.2633 808.919 31.5511C809.366 31.839 809.883 31.983 810.47 31.983C810.8 31.983 811.105 31.9394 811.385 31.8523C811.669 31.7652 811.921 31.6383 812.141 31.4716C812.36 31.3011 812.542 31.0947 812.686 30.8523C812.834 30.6098 812.936 30.3333 812.993 30.0227L815.482 30.0341C815.417 30.5682 815.256 31.0833 814.999 31.5795C814.745 32.072 814.402 32.5133 813.97 32.9034C813.542 33.2898 813.031 33.5966 812.436 33.8239C811.845 34.0473 811.177 34.1591 810.43 34.1591C809.393 34.1591 808.464 33.9242 807.646 33.4545C806.832 32.9848 806.188 32.3049 805.714 31.4148C805.245 30.5246 805.01 29.447 805.01 28.1818C805.01 26.9129 805.249 25.8333 805.726 24.9432C806.203 24.053 806.851 23.375 807.669 22.9091C808.487 22.4394 809.408 22.2045 810.43 22.2045C811.105 22.2045 811.73 22.2992 812.305 22.4886C812.885 22.678 813.398 22.9545 813.845 23.3182C814.292 23.678 814.656 24.1193 814.936 24.642C815.22 25.1648 815.402 25.7633 815.482 26.4375Z" fill="#2C2C2C"/>
<path d="M786.402 219H785.453V212.93C785.453 212.699 785.453 212.502 785.453 212.338C785.457 212.17 785.461 212.018 785.465 211.881C785.473 211.74 785.482 211.598 785.494 211.453C785.373 211.578 785.26 211.686 785.154 211.775C785.049 211.861 784.918 211.969 784.762 212.098L783.783 212.883L783.273 212.221L785.594 210.434H786.402V219ZM795.689 217.014H794.406V219H793.457V217.014H789.314V216.193L793.393 210.387H794.406V216.135H795.689V217.014ZM793.457 216.135V213.334C793.457 213.119 793.459 212.926 793.463 212.754C793.467 212.578 793.473 212.416 793.48 212.268C793.488 212.115 793.494 211.971 793.498 211.834C793.506 211.697 793.512 211.562 793.516 211.43H793.469C793.395 211.586 793.309 211.752 793.211 211.928C793.117 212.1 793.021 212.254 792.924 212.391L790.281 216.135H793.457ZM796.803 218.391C796.803 218.117 796.869 217.924 797.002 217.811C797.135 217.693 797.297 217.635 797.488 217.635C797.688 217.635 797.855 217.693 797.992 217.811C798.129 217.924 798.197 218.117 798.197 218.391C798.197 218.66 798.129 218.857 797.992 218.982C797.855 219.104 797.688 219.164 797.488 219.164C797.297 219.164 797.135 219.104 797.002 218.982C796.869 218.857 796.803 218.66 796.803 218.391ZM796.803 213.193C796.803 212.912 796.869 212.715 797.002 212.602C797.135 212.484 797.297 212.426 797.488 212.426C797.688 212.426 797.855 212.484 797.992 212.602C798.129 212.715 798.197 212.912 798.197 213.193C798.197 213.459 798.129 213.652 797.992 213.773C797.855 213.895 797.688 213.955 797.488 213.955C797.297 213.955 797.135 213.895 797.002 213.773C796.869 213.652 796.803 213.459 796.803 213.193ZM805.328 214.705C805.328 215.4 805.275 216.021 805.17 216.568C805.064 217.115 804.898 217.578 804.672 217.957C804.445 218.336 804.152 218.625 803.793 218.824C803.434 219.02 803.002 219.117 802.498 219.117C801.861 219.117 801.334 218.943 800.916 218.596C800.502 218.248 800.191 217.746 799.984 217.09C799.781 216.43 799.68 215.635 799.68 214.705C799.68 213.791 799.771 213.006 799.955 212.35C800.143 211.689 800.443 211.184 800.857 210.832C801.271 210.477 801.818 210.299 802.498 210.299C803.143 210.299 803.674 210.475 804.092 210.826C804.51 211.174 804.82 211.678 805.023 212.338C805.227 212.994 805.328 213.783 805.328 214.705ZM800.658 214.705C800.658 215.502 800.719 216.166 800.84 216.697C800.961 217.229 801.156 217.627 801.426 217.893C801.699 218.154 802.057 218.285 802.498 218.285C802.939 218.285 803.295 218.154 803.564 217.893C803.838 217.631 804.035 217.234 804.156 216.703C804.281 216.172 804.344 215.506 804.344 214.705C804.344 213.92 804.283 213.264 804.162 212.736C804.041 212.205 803.846 211.807 803.576 211.541C803.307 211.271 802.947 211.137 802.498 211.137C802.049 211.137 801.689 211.271 801.42 211.541C801.15 211.807 800.955 212.205 800.834 212.736C800.717 213.264 800.658 213.92 800.658 214.705ZM812.195 214.705C812.195 215.4 812.143 216.021 812.037 216.568C811.932 217.115 811.766 217.578 811.539 217.957C811.312 218.336 811.02 218.625 810.66 218.824C810.301 219.02 809.869 219.117 809.365 219.117C808.729 219.117 808.201 218.943 807.783 218.596C807.369 218.248 807.059 217.746 806.852 217.09C806.648 216.43 806.547 215.635 806.547 214.705C806.547 213.791 806.639 213.006 806.822 212.35C807.01 211.689 807.311 211.184 807.725 210.832C808.139 210.477 808.686 210.299 809.365 210.299C810.01 210.299 810.541 210.475 810.959 210.826C811.377 211.174 811.688 211.678 811.891 212.338C812.094 212.994 812.195 213.783 812.195 214.705ZM807.525 214.705C807.525 215.502 807.586 216.166 807.707 216.697C807.828 217.229 808.023 217.627 808.293 217.893C808.566 218.154 808.924 218.285 809.365 218.285C809.807 218.285 810.162 218.154 810.432 217.893C810.705 217.631 810.902 217.234 811.023 216.703C811.148 216.172 811.211 215.506 811.211 214.705C811.211 213.92 811.15 213.264 811.029 212.736C810.908 212.205 810.713 211.807 810.443 211.541C810.174 211.271 809.814 211.137 809.365 211.137C808.916 211.137 808.557 211.271 808.287 211.541C808.018 211.807 807.822 212.205 807.701 212.736C807.584 213.264 807.525 213.92 807.525 214.705Z" fill="#7D7D7D"/>
<defs>
<filter id="filter0_d_4_2" x="-9.15527e-05" y="49" width="849" height="142.845" filterUnits="userSpaceOnUse" color-interpolation-filters="sRGB">
<feFlood flood-opacity="0" result="BackgroundImageFix"/>
<feColorMatrix in="SourceAlpha" type="matrix" values="0 0 0 0 0 0 0 0 0 0 0 0 0 0 0 0 0 0 127 0" result="hardAlpha"/>
<feOffset dy="10"/>
<feGaussianBlur stdDeviation="5"/>
<feColorMatrix type="matrix" values="0 0 0 0 0 0 0 0 0 0 0 0 0 0 0 0 0 0 0.2 0"/>
<feBlend mode="normal" in2="BackgroundImageFix" result="effect1_dropShadow_4_2"/>
<feBlend mode="normal" in="SourceGraphic" in2="effect1_dropShadow_4_2" result="shape"/>
</filter>
</defs>
</svg>
